# xmcd CD database file
#
# Track frame offsets:
#	150
#	21400
#	43687
#
# Disc length: 862 seconds
#
# Revision: 0
# Processed by: cddbd v1.5PL3 Copyright (c) Steve Scherf et al.
# Submitted via: CDex 1.51
#
DISCID=20035c03
DTITLE=HIM - NO MORE KISS, NO MORE CRY
DYEAR=1995
DGENRE=JPop
TTITLE0=NO MORE KISS, NO MORE CRY
TTITLE1=NO MORE KISS, NO MORE CRY (ANOTHER VERSION)
TTITLE2=NO MORE KISS, NO MORE CRY (ORIGINAL KARAOKE)
EXTD=YEAR: 1995
EXTT0=
EXTT1=
EXTT2=
PLAYORDER=
